<svg width="13" height="13" viewBox="0 0 13 13" fill="none" xmlns="http://www.w3.org/2000/svg">
<path d="M3.54623 13C2.67746 13 1.86432 12.6315 1.27717 12.0443C0.139466 10.9066 -0.177701 8.92034 1.41738 7.32526C2.35197 6.39067 6.09559 2.64731 7.96436 0.778143C8.62777 0.114736 9.47223 -0.141376 10.2806 0.0752227C11.0746 0.287857 11.7253 0.938312 11.9379 1.73215C12.1545 2.54106 11.8984 3.38525 11.2351 4.04866L4.97414 10.3098C4.61667 10.6673 4.21294 10.8788 3.80697 10.9218C3.40509 10.9641 3.02132 10.8347 2.75279 10.5663C2.26567 10.0793 2.19629 9.16271 3.00599 8.3534L7.40377 3.95536C7.58442 3.77471 7.87714 3.77471 8.0578 3.95536C8.23845 4.13601 8.23845 4.42886 8.0578 4.60938L3.66015 9.0073C3.27994 9.38737 3.24506 9.75026 3.40694 9.91215C3.47791 9.98311 3.58561 10.0151 3.7097 10.0017C3.90014 9.98166 4.117 9.85863 4.32012 9.65551L10.5811 3.39464C11.0106 2.96514 11.1753 2.45979 11.0444 1.97188C10.9156 1.49124 10.522 1.09769 10.0414 0.96884C9.55363 0.838008 9.04815 1.00267 8.61839 1.4323C6.74975 3.30107 3.00599 7.04496 2.07141 7.97928C0.851637 9.19905 1.14369 10.6025 1.93119 11.39C2.71869 12.1775 4.12202 12.4698 5.34219 11.2499L11.8892 4.70282C12.0698 4.52216 12.3625 4.52216 12.5432 4.70282C12.7238 4.88347 12.7238 5.17632 12.5432 5.35684L5.99621 11.9041C5.22457 12.676 4.36082 13 3.54623 13Z" fill="#FF6C3A"/>
</svg>
