<svg width="185" height="36" viewBox="0 0 185 36" fill="none" xmlns="http://www.w3.org/2000/svg">
<path fill-rule="evenodd" clip-rule="evenodd" d="M9.60374 0L0 36H17.1827L18.1749 32.367H11.6453L19.8526 0H9.60374Z" fill="#FF6C3A"/>
<path fill-rule="evenodd" clip-rule="evenodd" d="M40.2878 0H29.7856L28.1345 6.27523H38.6446L40.2878 0Z" fill="#FF6C3A"/>
<path fill-rule="evenodd" clip-rule="evenodd" d="M27.1219 10.5688L20.3729 36H31.0241L37.6509 10.5688H27.1219Z" fill="#FF6C3A"/>
<path fill-rule="evenodd" clip-rule="evenodd" d="M50.4336 0L41.9732 32.367H35.3583L34.3662 36H51.6119L59.84 3.9633H66.2928L67.4575 0H50.4336Z" fill="#FF6C3A"/>
<path d="M81.7029 16.428L83.7772 8.23801H86.6991L83.218 21H80.278L77.5544 12.54L74.8128 21H71.8187L68.3376 8.23801H71.3678L73.4781 16.41L76.1295 8.23801H79.0515L81.7029 16.428ZM91.1542 21H88.2683V8.23801H91.1542V21ZM102.716 11.37L100.155 12.09C100.064 11.496 99.5774 10.488 98.0263 10.488C96.9621 10.488 96.2767 11.154 96.2767 11.856C96.2767 12.468 96.6555 12.918 97.5393 13.08L99.2528 13.404C101.688 13.854 102.95 15.42 102.95 17.238C102.95 19.236 101.273 21.27 98.2247 21.27C94.6895 21.27 93.1744 18.984 92.994 17.184L95.6093 16.554C95.7176 17.724 96.5112 18.75 98.2608 18.75C99.379 18.75 100.064 18.21 100.064 17.418C100.064 16.77 99.5414 16.302 98.6936 16.14L96.9441 15.816C94.7796 15.402 93.463 13.962 93.463 12.072C93.463 9.66001 95.5913 7.96801 98.0443 7.96801C101.237 7.96801 102.445 9.876 102.716 11.37ZM118.137 11.37L115.576 12.09C115.486 11.496 114.999 10.488 113.448 10.488C112.384 10.488 111.698 11.154 111.698 11.856C111.698 12.468 112.077 12.918 112.961 13.08L114.674 13.404C117.109 13.854 118.372 15.42 118.372 17.238C118.372 19.236 116.694 21.27 113.646 21.27C110.111 21.27 108.596 18.984 108.416 17.184L111.031 16.554C111.139 17.724 111.933 18.75 113.682 18.75C114.801 18.75 115.486 18.21 115.486 17.418C115.486 16.77 114.963 16.302 114.115 16.14L112.366 15.816C110.201 15.402 108.884 13.962 108.884 12.072C108.884 9.66001 111.013 7.96801 113.466 7.96801C116.658 7.96801 117.867 9.876 118.137 11.37ZM124.252 18.75C125.298 18.75 126.272 18.03 126.272 16.518C126.272 15.006 125.298 14.304 124.252 14.304C123.224 14.304 122.232 15.006 122.232 16.518C122.232 18.012 123.224 18.75 124.252 18.75ZM124.252 11.784C126.939 11.784 129.014 13.746 129.014 16.518C129.014 19.29 126.939 21.27 124.252 21.27C121.582 21.27 119.49 19.29 119.49 16.518C119.49 13.746 121.582 11.784 124.252 11.784ZM135.886 14.358H133.938V21H131.196V14.358H129.771V12.054H131.196V11.28C131.196 9.22801 132.441 7.82401 134.623 7.82401C135.182 7.82401 135.669 7.89601 135.922 8.02201V10.254C135.777 10.218 135.543 10.164 135.11 10.164C134.623 10.164 133.938 10.38 133.938 11.37V12.054H135.886V14.358ZM140.611 9.44401V12.054H142.361V14.448H140.611V17.796C140.611 18.534 141.008 18.732 141.603 18.732C141.892 18.732 142.162 18.678 142.325 18.642V20.91C142.217 20.964 141.766 21.162 140.9 21.162C139.042 21.162 137.906 20.064 137.906 18.282V14.448H136.319V12.054H136.769C137.707 12.054 138.158 11.424 138.158 10.596V9.44401H140.611ZM149.323 12.054H152.227L153.977 17.364L155.474 12.054H158.161L155.383 21H152.66L150.712 15.222L148.8 21H146.022L143.209 12.054H146.058L147.555 17.346L149.323 12.054ZM159.027 18.534C159.027 16.95 160.199 16.05 161.678 15.834L163.789 15.51C164.276 15.438 164.438 15.204 164.438 14.898C164.438 14.376 163.987 13.926 163.121 13.926C162.165 13.926 161.642 14.574 161.588 15.24L159.207 14.754C159.316 13.476 160.506 11.784 163.139 11.784C166.043 11.784 167.107 13.404 167.107 15.24V19.614C167.107 20.316 167.198 20.91 167.216 21H164.745C164.727 20.928 164.654 20.604 164.654 19.992C164.185 20.748 163.32 21.252 162.129 21.252C160.163 21.252 159.027 19.956 159.027 18.534ZM162.797 19.272C163.608 19.272 164.438 18.876 164.438 17.49V17.094L162.743 17.364C162.165 17.454 161.732 17.724 161.732 18.354C161.732 18.822 162.039 19.272 162.797 19.272ZM175.116 12.054V14.754C174.809 14.682 174.521 14.664 174.25 14.664C173.15 14.664 172.158 15.312 172.158 17.094V21H169.416V12.054H172.068V13.26C172.537 12.252 173.673 11.964 174.394 11.964C174.665 11.964 174.935 12 175.116 12.054ZM178.759 15.456H182.349C182.312 14.772 181.844 13.944 180.545 13.944C179.391 13.944 178.813 14.79 178.759 15.456ZM182.547 17.778L184.838 18.426C184.405 19.974 182.98 21.27 180.707 21.27C178.236 21.27 176.036 19.506 176.036 16.5C176.036 13.62 178.182 11.784 180.509 11.784C183.286 11.784 185 13.494 185 16.374C185 16.752 184.964 17.166 184.946 17.22H178.705C178.759 18.228 179.679 18.948 180.743 18.948C181.735 18.948 182.294 18.48 182.547 17.778Z" fill="white"/>
<path d="M69.8347 32.217H71.1423C72.3238 32.217 73.3158 31.425 73.3158 29.823C73.3158 28.212 72.3418 27.402 71.1604 27.402H69.8347V32.217ZM71.1694 33H68.9509V26.619H71.1874C72.8108 26.619 74.2266 27.726 74.2266 29.823C74.2266 31.911 72.7927 33 71.1694 33ZM77.2117 32.379C77.9332 32.379 78.5645 31.839 78.5645 30.831C78.5645 29.832 77.9332 29.292 77.2117 29.292C76.4903 29.292 75.859 29.832 75.859 30.831C75.859 31.839 76.4903 32.379 77.2117 32.379ZM77.2117 28.536C78.5104 28.536 79.4303 29.517 79.4303 30.831C79.4303 32.154 78.5104 33.135 77.2117 33.135C75.9131 33.135 74.9932 32.154 74.9932 30.831C74.9932 29.517 75.9131 28.536 77.2117 28.536ZM83.6058 33H82.7671V28.671H83.5788V29.247C83.8493 28.77 84.3904 28.545 84.8954 28.545C85.4366 28.545 85.9596 28.806 86.1941 29.364C86.5368 28.743 87.0959 28.545 87.6461 28.545C88.4036 28.545 89.1431 29.058 89.1431 30.192V33H88.3044V30.282C88.3044 29.715 88.0248 29.292 87.3845 29.292C86.7893 29.292 86.3835 29.76 86.3835 30.381V33H85.5358V30.282C85.5358 29.724 85.2652 29.292 84.6159 29.292C84.0116 29.292 83.6058 29.742 83.6058 30.39V33ZM92.3537 32.379C93.0752 32.379 93.7064 31.839 93.7064 30.831C93.7064 29.832 93.0752 29.292 92.3537 29.292C91.6322 29.292 91.0009 29.832 91.0009 30.831C91.0009 31.839 91.6322 32.379 92.3537 32.379ZM92.3537 28.536C93.6523 28.536 94.5722 29.517 94.5722 30.831C94.5722 32.154 93.6523 33.135 92.3537 33.135C91.055 33.135 90.1352 32.154 90.1352 30.831C90.1352 29.517 91.055 28.536 92.3537 28.536ZM98.0623 28.626V29.526C97.9361 29.508 97.8098 29.499 97.6926 29.499C96.9801 29.499 96.5022 29.877 96.5022 30.831V33H95.6544V28.671H96.4841V29.427C96.7998 28.761 97.3409 28.599 97.7828 28.599C97.9 28.599 98.0173 28.617 98.0623 28.626ZM99.5143 30.39H101.886C101.868 29.769 101.462 29.283 100.696 29.283C99.9833 29.283 99.5504 29.832 99.5143 30.39ZM102.012 31.515L102.743 31.767C102.499 32.532 101.805 33.135 100.795 33.135C99.6316 33.135 98.6125 32.289 98.6125 30.822C98.6125 29.463 99.5955 28.536 100.687 28.536C102.021 28.536 102.77 29.454 102.77 30.804C102.77 30.912 102.761 31.02 102.752 31.074H99.4873C99.5053 31.848 100.064 32.388 100.795 32.388C101.498 32.388 101.85 32.001 102.012 31.515ZM103.762 32.424C103.762 32.1 104.042 31.821 104.42 31.821C104.808 31.821 105.151 32.109 105.151 32.676C105.151 33.864 104.375 34.359 103.816 34.431V33.963C104.258 33.864 104.556 33.423 104.565 32.991C104.538 33.009 104.465 33.036 104.366 33.036C104.033 33.036 103.762 32.811 103.762 32.424ZM109.895 27.303V28.671H110.832V29.436H109.895V31.686C109.895 32.082 110.057 32.28 110.499 32.28C110.607 32.28 110.76 32.262 110.832 32.244V32.964C110.76 32.991 110.544 33.045 110.255 33.045C109.516 33.045 109.047 32.595 109.047 31.812V29.436H108.217V28.671H108.452C108.921 28.671 109.119 28.383 109.119 28.005V27.303H109.895ZM112.807 30.453V33H111.96V26.484H112.807V29.175C113.123 28.716 113.628 28.545 114.124 28.545C115.161 28.545 115.675 29.292 115.675 30.255V33H114.828V30.399C114.828 29.796 114.575 29.31 113.818 29.31C113.168 29.31 112.826 29.814 112.807 30.453ZM116.758 31.839C116.758 31.065 117.326 30.633 118.074 30.525L119.247 30.354C119.508 30.318 119.58 30.183 119.58 30.03C119.58 29.607 119.301 29.256 118.642 29.256C118.047 29.256 117.713 29.625 117.659 30.129L116.848 29.94C116.938 29.112 117.686 28.536 118.624 28.536C119.923 28.536 120.428 29.274 120.428 30.12V32.289C120.428 32.667 120.464 32.892 120.482 33H119.652C119.634 32.892 119.607 32.73 119.607 32.415C119.418 32.721 118.985 33.135 118.21 33.135C117.326 33.135 116.758 32.523 116.758 31.839ZM118.327 32.424C119.021 32.424 119.58 32.091 119.58 31.146V30.948L118.255 31.146C117.894 31.2 117.623 31.407 117.623 31.794C117.623 32.118 117.894 32.424 118.327 32.424ZM122.592 30.498V33H121.745V28.671H122.574V29.292C122.89 28.752 123.404 28.545 123.909 28.545C124.946 28.545 125.46 29.292 125.46 30.255V33H124.613V30.399C124.613 29.796 124.36 29.31 123.603 29.31C122.935 29.31 122.592 29.841 122.592 30.498ZM130.15 34.809H129.221L130.303 32.523L128.436 28.671H129.41L130.763 31.659L132.062 28.671H132.973L130.15 34.809ZM135.642 32.379C136.364 32.379 136.995 31.839 136.995 30.831C136.995 29.832 136.364 29.292 135.642 29.292C134.921 29.292 134.289 29.832 134.289 30.831C134.289 31.839 134.921 32.379 135.642 32.379ZM135.642 28.536C136.941 28.536 137.861 29.517 137.861 30.831C137.861 32.154 136.941 33.135 135.642 33.135C134.343 33.135 133.424 32.154 133.424 30.831C133.424 29.517 134.343 28.536 135.642 28.536ZM141.802 32.478C141.567 32.928 141.026 33.135 140.521 33.135C139.511 33.135 138.898 32.379 138.898 31.398V28.671H139.746V31.272C139.746 31.866 140.016 32.388 140.729 32.388C141.414 32.388 141.757 31.938 141.757 31.281V28.671H142.604V32.199C142.604 32.541 142.631 32.847 142.649 33H141.838C141.82 32.901 141.802 32.658 141.802 32.478ZM148.124 29.319C147.438 29.319 146.807 29.823 146.807 30.831C146.807 31.821 147.429 32.352 148.133 32.352C148.944 32.352 149.242 31.803 149.341 31.461L150.09 31.785C149.882 32.406 149.26 33.135 148.133 33.135C146.87 33.135 145.941 32.145 145.941 30.831C145.941 29.481 146.888 28.536 148.124 28.536C149.278 28.536 149.873 29.256 150.054 29.913L149.287 30.237C149.179 29.814 148.863 29.319 148.124 29.319ZM150.811 31.839C150.811 31.065 151.379 30.633 152.128 30.525L153.3 30.354C153.562 30.318 153.634 30.183 153.634 30.03C153.634 29.607 153.354 29.256 152.696 29.256C152.101 29.256 151.767 29.625 151.713 30.129L150.901 29.94C150.992 29.112 151.74 28.536 152.678 28.536C153.977 28.536 154.482 29.274 154.482 30.12V32.289C154.482 32.667 154.518 32.892 154.536 33H153.706C153.688 32.892 153.661 32.73 153.661 32.415C153.472 32.721 153.039 33.135 152.263 33.135C151.379 33.135 150.811 32.523 150.811 31.839ZM152.38 32.424C153.075 32.424 153.634 32.091 153.634 31.146V30.948L152.308 31.146C151.947 31.2 151.677 31.407 151.677 31.794C151.677 32.118 151.947 32.424 152.38 32.424ZM156.646 30.498V33H155.798V28.671H156.628V29.292C156.944 28.752 157.458 28.545 157.963 28.545C159 28.545 159.514 29.292 159.514 30.255V33H158.666V30.399C158.666 29.796 158.414 29.31 157.656 29.31C156.989 29.31 156.646 29.841 156.646 30.498ZM162.075 26.619L161.85 31.173H161.245L161.011 26.619H162.075ZM160.957 32.46C160.957 32.136 161.218 31.866 161.543 31.866C161.868 31.866 162.138 32.136 162.138 32.46C162.138 32.784 161.868 33.045 161.543 33.045C161.218 33.045 160.957 32.784 160.957 32.46Z" fill="white"/>
</svg>
