<svg width="40" height="40" viewBox="0 0 40 40" fill="none" xmlns="http://www.w3.org/2000/svg">
<path d="M32.3442 11.6211C32.7757 11.6211 33.1255 11.2713 33.1255 10.8398V2.34375C33.1255 1.05141 32.0741 0 30.7817 0H2.34424C1.05189 0 0.000488281 1.05141 0.000488281 2.34375V37.6562C0.000488281 38.9486 1.05189 40 2.34424 40H30.7817C32.0741 40 33.1255 38.9486 33.1255 37.6562V31.9006C33.1255 31.4691 32.7757 31.1194 32.3442 31.1194C31.9128 31.1194 31.563 31.4691 31.563 31.9006V37.6562C31.563 38.087 31.2125 38.4375 30.7817 38.4375H2.34424C1.91346 38.4375 1.56299 38.087 1.56299 37.6562V2.34375C1.56299 1.91297 1.91346 1.5625 2.34424 1.5625H30.7817C31.2125 1.5625 31.563 1.91297 31.563 2.34375V10.8398C31.563 11.2713 31.9128 11.6211 32.3442 11.6211Z" fill="#FF6C3A"/>
<path d="M16.5629 4.21875C12.5997 4.21875 9.3754 7.44305 9.3754 11.4062C9.3754 13.4623 10.2434 15.3191 11.6318 16.6304C11.6578 16.6582 11.6855 16.6845 11.7157 16.7085C12.9947 17.8787 14.6968 18.5937 16.5628 18.5937C18.4288 18.5937 20.1309 17.8787 21.4099 16.7085C21.4402 16.6845 21.4678 16.6581 21.4938 16.6304C22.8824 15.3191 23.7504 13.4623 23.7504 11.4062C23.7504 7.44305 20.5261 4.21875 16.5629 4.21875ZM16.5629 17.0312C15.2872 17.0312 14.1098 16.6038 13.1652 15.8853C13.8518 14.6677 15.1331 13.9062 16.5629 13.9062C17.9927 13.9062 19.274 14.6677 19.9606 15.8853C19.0159 16.6038 17.8386 17.0312 16.5629 17.0312ZM15.3129 11.0938V10.5859C15.3129 9.89672 15.8737 9.33594 16.5629 9.33594C17.2521 9.33594 17.8129 9.89672 17.8129 10.5859V11.0938C17.8129 11.783 17.2521 12.3438 16.5629 12.3438C15.8737 12.3438 15.3129 11.783 15.3129 11.0938ZM21.0895 14.7409C20.5133 13.8863 19.7148 13.2217 18.7877 12.8114C19.1556 12.3359 19.3754 11.7402 19.3754 11.0938V10.5859C19.3754 9.03508 18.1138 7.77344 16.5629 7.77344C15.012 7.77344 13.7504 9.03508 13.7504 10.5859V11.0938C13.7504 11.7402 13.9702 12.3359 14.3381 12.8114C13.411 13.2217 12.6125 13.8863 12.0363 14.7409C11.3466 13.807 10.9379 12.6537 10.9379 11.4062C10.9379 8.30461 13.4613 5.78125 16.5629 5.78125C19.6645 5.78125 22.1879 8.30461 22.1879 11.4062C22.1879 12.6537 21.7792 13.807 21.0895 14.7409Z" fill="#FF6C3A"/>
<path d="M20.7816 29.8438H9.6879C9.25649 29.8438 8.90665 30.1935 8.90665 30.625C8.90665 31.0565 9.25649 31.4062 9.6879 31.4062H20.7816C21.213 31.4062 21.5629 31.0565 21.5629 30.625C21.5629 30.1935 21.213 29.8438 20.7816 29.8438Z" fill="#FF6C3A"/>
<path d="M20.7816 25.4688H9.6879C9.25649 25.4688 8.90665 25.8185 8.90665 26.25C8.90665 26.6815 9.25649 27.0312 9.6879 27.0312H20.7816C21.213 27.0312 21.5629 26.6815 21.5629 26.25C21.5629 25.8185 21.213 25.4688 20.7816 25.4688Z" fill="#FF6C3A"/>
<path d="M20.7816 21.0938H9.6879C9.25649 21.0938 8.90665 21.4435 8.90665 21.875C8.90665 22.3065 9.25649 22.6562 9.6879 22.6562H20.7816C21.213 22.6562 21.5629 22.3065 21.5629 21.875C21.5629 21.4435 21.213 21.0938 20.7816 21.0938Z" fill="#FF6C3A"/>
<path d="M38.3595 10.1812C37.6006 9.74304 36.7163 9.62663 35.8696 9.85343C35.0231 10.0803 34.3154 10.6233 33.8773 11.3823L24.0459 28.4106C23.992 28.504 23.958 28.6075 23.946 28.7146L23.254 34.9134C23.2196 35.2218 23.371 35.5214 23.6398 35.6766C23.7611 35.7466 23.8959 35.7813 24.0303 35.7813C24.1938 35.7813 24.3566 35.7302 24.4937 35.6291L29.5159 31.9304C29.6027 31.8665 29.6753 31.7853 29.7292 31.6919L39.5605 14.6636C40.4652 13.0967 39.9264 11.0859 38.3595 10.1812ZM25.0049 33.312L25.3663 30.0752L27.6274 31.3806L25.0049 33.312ZM28.7667 30.2341L25.7897 28.5153L33.6792 14.8505L36.6561 16.5692L28.7667 30.2341ZM38.2074 13.8823L37.4373 15.2161L34.4603 13.4973L35.2304 12.1635C35.4599 11.7659 35.8306 11.4816 36.274 11.3627C36.7176 11.2438 37.1807 11.3049 37.5782 11.5344C37.9758 11.764 38.2602 12.1346 38.379 12.578C38.4978 13.0215 38.4369 13.4847 38.2074 13.8823Z" fill="#FF6C3A"/>
</svg>
