<svg width="40" height="40" viewBox="0 0 40 40" fill="none" xmlns="http://www.w3.org/2000/svg">
<path d="M31.05 3.75V3.95H31.25H36.6675C38.3983 3.95 39.8 5.35171 39.8 7.0825V36.6663C39.8 38.3971 38.3982 39.8 36.6675 39.8H3.33375C1.60296 39.8 0.2 38.397 0.2 36.6663V7.0825C0.2 5.3518 1.60286 3.95 3.33375 3.95H8.75H8.95V3.75V1.25C8.95 0.669337 9.42033 0.2 10 0.2C10.5797 0.2 11.05 0.669337 11.05 1.25V3.75V3.95H11.25H18.75H18.95V3.75V1.25C18.95 0.669337 19.4203 0.2 20 0.2C20.5797 0.2 21.05 0.669337 21.05 1.25V3.75V3.95H21.25H28.75H28.95V3.75V1.25C28.95 0.669207 29.4192 0.2 30 0.2C30.5808 0.2 31.05 0.669207 31.05 1.25V3.75ZM8.95 6.25V6.05H8.75H3.33375C2.76349 6.05 2.3 6.5131 2.3 7.0825V36.6663C2.3 37.2367 2.76329 37.7 3.33375 37.7H36.6675C37.2369 37.7 37.7 37.2365 37.7 36.6663V7.0825C37.7 6.51329 37.2367 6.05 36.6675 6.05H31.25H31.05V6.25V8.75C31.05 9.33079 30.5808 9.8 30 9.8C29.4192 9.8 28.95 9.33079 28.95 8.75V6.25V6.05H28.75H21.25H21.05V6.25V8.75C21.05 9.33066 20.5797 9.8 20 9.8C19.4203 9.8 18.95 9.33066 18.95 8.75V6.25V6.05H18.75H11.25H11.05V6.25V8.75C11.05 9.33066 10.5797 9.8 10 9.8C9.42033 9.8 8.95 9.33066 8.95 8.75V6.25Z" fill="#FF6C3A" stroke="#111517" stroke-width="0.4"/>
<path d="M8.95 18.55V15.2H13.55V18.55H8.95Z" fill="#FF6C3A" stroke="#111517" stroke-width="0.4"/>
<path d="M8.95 24.8V21.45H13.55V24.8H8.95Z" fill="#FF6C3A" stroke="#111517" stroke-width="0.4"/>
<path d="M8.95 31.05V27.7H13.55V31.05H8.95Z" fill="#FF6C3A" stroke="#111517" stroke-width="0.4"/>
<path d="M17.7 31.05V27.7H22.3V31.05H17.7Z" fill="#FF6C3A" stroke="#111517" stroke-width="0.4"/>
<path d="M17.7 24.8V21.45H22.3V24.8H17.7Z" fill="#FF6C3A" stroke="#111517" stroke-width="0.4"/>
<path d="M17.7 18.55V15.2H22.3V18.55H17.7Z" fill="#FF6C3A" stroke="#111517" stroke-width="0.4"/>
<path d="M26.45 31.05V27.7H31.05V31.05H26.45Z" fill="#FF6C3A" stroke="#111517" stroke-width="0.4"/>
<path d="M26.45 24.8V21.45H31.05V24.8H26.45Z" fill="#FF6C3A" stroke="#111517" stroke-width="0.4"/>
<path d="M26.45 18.55V15.2H31.05V18.55H26.45Z" fill="#FF6C3A" stroke="#111517" stroke-width="0.4"/>
</svg>
