<svg width="364" height="351" viewBox="0 0 364 351" fill="none" xmlns="http://www.w3.org/2000/svg">
<path d="M213.5 193.5L93 124V278.5L213.5 349V193.5Z" fill="#FF6C3A" fill-opacity="0.06"/>
<path d="M1.75635 61.1743L0.756416 61.1626C0.760574 60.8078 0.952427 60.4818 1.26057 60.3059C1.56871 60.1299 1.947 60.1305 2.25463 60.3073L1.75635 61.1743ZM1.00005 125.738L0.503643 126.606C0.18858 126.426 -0.00413132 126.089 0.000118256 125.727L1.00005 125.738ZM51.4199 154.57L52.4199 154.578C52.4171 154.933 52.2262 155.26 51.9184 155.437C51.6105 155.614 51.2318 155.615 50.9235 155.438L51.4199 154.57ZM51.9241 90.0063L52.4224 89.1393C52.7352 89.319 52.9269 89.6533 52.9241 90.0141L51.9241 90.0063ZM51.4202 154.571L51.9261 155.433C51.6157 155.615 51.2314 155.616 50.9198 155.436C50.6082 155.256 50.4174 154.923 50.4203 154.563L51.4202 154.571ZM60.2437 149.396L61.2436 149.407C61.2395 149.758 61.0521 150.081 60.7496 150.258L60.2437 149.396ZM61 84.8317L60.5047 83.963C60.816 83.7855 61.1985 83.7882 61.5074 83.97C61.8162 84.1518 62.0041 84.4851 61.9999 84.8434L61 84.8317ZM51.9244 90.0067L50.9245 89.9989C50.9272 89.6425 51.1195 89.3145 51.4291 89.138L51.9244 90.0067ZM51.9244 90.007L52.4198 90.8756C52.1117 91.0513 51.7336 91.0507 51.4261 90.874L51.9244 90.007ZM61 84.832L61.4964 83.9639C61.808 84.1421 62.0002 84.4736 62 84.8326C61.9998 85.1916 61.8072 85.5229 61.4953 85.7007L61 84.832ZM10.5801 56L10.0742 55.1374C10.3832 54.9562 10.7655 54.9541 11.0765 55.1319L10.5801 56ZM1.75663 61.175L1.25835 62.042C0.949348 61.8644 0.758217 61.5358 0.756645 61.1794C0.755074 60.823 0.943302 60.4927 1.25073 60.3124L1.75663 61.175ZM2.75628 61.186L1.99998 125.75L0.000118256 125.727L0.756416 61.1626L2.75628 61.186ZM1.49646 124.87L51.9163 153.702L50.9235 155.438L0.503643 126.606L1.49646 124.87ZM50.42 154.562L50.9242 89.9985L52.9241 90.0141L52.4199 154.578L50.42 154.562ZM51.4259 90.8733L1.25807 62.0413L2.25463 60.3073L52.4224 89.1393L51.4259 90.8733ZM50.9143 153.708L59.7378 148.533L60.7496 150.258L51.9261 155.433L50.9143 153.708ZM59.2438 149.384L60.0001 84.82L61.9999 84.8434L61.2436 149.407L59.2438 149.384ZM61.4953 85.7004L52.4198 90.8754L51.4291 89.138L60.5047 83.963L61.4953 85.7004ZM52.9244 90.0145L52.4202 154.578L50.4203 154.563L50.9245 89.9989L52.9244 90.0145ZM51.4291 89.1382L60.5047 83.9633L61.4953 85.7007L52.4198 90.8756L51.4291 89.1382ZM60.5036 85.7001L10.0837 56.8681L11.0765 55.1319L61.4964 83.9639L60.5036 85.7001ZM11.086 56.8626L2.26254 62.0376L1.25073 60.3124L10.0742 55.1374L11.086 56.8626ZM2.25492 60.308L52.4227 89.1399L51.4261 90.874L1.25835 62.042L2.25492 60.308Z" fill="#5F498E"/>
<path d="M361.454 87.4005L362.454 87.3888C362.45 87.034 362.258 86.708 361.95 86.5321C361.642 86.3562 361.264 86.3567 360.956 86.5335L361.454 87.4005ZM362.609 185.978L363.106 186.846C363.421 186.666 363.613 186.329 363.609 185.966L362.609 185.978ZM285.627 229.999L284.627 230.007C284.63 230.362 284.821 230.689 285.129 230.866C285.436 231.043 285.815 231.044 286.123 230.867L285.627 229.999ZM284.857 131.422L284.359 130.555C284.046 130.735 283.854 131.069 283.857 131.43L284.857 131.422ZM285.627 230L285.121 230.863C285.431 231.045 285.815 231.046 286.127 230.866C286.439 230.686 286.629 230.352 286.627 229.992L285.627 230ZM272.155 222.099L271.155 222.11C271.159 222.461 271.346 222.784 271.649 222.961L272.155 222.099ZM271 123.521L271.495 122.653C271.184 122.475 270.801 122.478 270.493 122.659C270.184 122.841 269.996 123.175 270 123.533L271 123.521ZM284.857 131.422L285.857 131.415C285.854 131.058 285.662 130.73 285.352 130.554L284.857 131.422ZM284.857 131.423L284.361 132.292C284.67 132.467 285.048 132.467 285.355 132.29L284.857 131.423ZM271 123.522L270.504 122.653C270.192 122.832 270 123.163 270 123.522C270 123.881 270.193 124.212 270.505 124.39L271 123.522ZM347.982 79.5003L348.488 78.6377C348.179 78.4565 347.797 78.4544 347.486 78.6322L347.982 79.5003ZM361.454 87.4016L361.952 88.2686C362.261 88.091 362.452 87.7624 362.454 87.406C362.456 87.0496 362.267 86.7193 361.96 86.539L361.454 87.4016ZM360.455 87.4123L361.609 185.99L363.609 185.966L362.454 87.3888L360.455 87.4123ZM362.113 185.11L285.131 229.131L286.123 230.867L363.106 186.846L362.113 185.11ZM286.627 229.992L285.857 131.414L283.857 131.43L284.627 230.007L286.627 229.992ZM285.355 132.289L361.953 88.2676L360.956 86.5335L284.359 130.555L285.355 132.289ZM286.133 229.137L272.661 221.236L271.649 222.961L285.121 230.863L286.133 229.137ZM273.155 222.087L272 123.509L270 123.533L271.155 222.11L273.155 222.087ZM270.505 124.39L284.361 132.291L285.352 130.554L271.495 122.653L270.505 124.39ZM283.857 131.43L284.627 230.008L286.627 229.992L285.857 131.415L283.857 131.43ZM285.352 130.554L271.495 122.653L270.505 124.39L284.361 132.292L285.352 130.554ZM271.496 124.39L348.479 80.3684L347.486 78.6322L270.504 122.653L271.496 124.39ZM347.476 80.3629L360.948 88.2641L361.96 86.539L348.488 78.6377L347.476 80.3629ZM360.956 86.5345L284.359 130.556L285.355 132.29L361.952 88.2686L360.956 86.5345Z" fill="#5F498E"/>
<path d="M240.244 6.17431L240.744 6.16845C240.742 5.99105 240.646 5.82804 240.492 5.74008C240.337 5.65213 240.148 5.6524 239.995 5.7408L240.244 6.17431ZM241 70.7382L241.248 71.1723C241.406 71.0822 241.502 70.9138 241.5 70.7324L241 70.7382ZM190.58 99.5702L190.08 99.5741C190.081 99.7517 190.177 99.9152 190.331 100.004C190.485 100.092 190.674 100.092 190.828 100.004L190.58 99.5702ZM190.076 35.0063L189.827 34.5728C189.67 34.6627 189.574 34.8298 189.576 35.0102L190.076 35.0063ZM190.58 99.5706L190.327 100.002C190.482 100.093 190.674 100.094 190.83 100.003C190.986 99.9135 191.081 99.7466 191.08 99.5667L190.58 99.5706ZM181.756 94.3956L181.256 94.4015C181.258 94.5768 181.352 94.7382 181.503 94.8269L181.756 94.3956ZM181 29.8317L181.248 29.3974C181.092 29.3086 180.901 29.3099 180.746 29.4009C180.592 29.4918 180.498 29.6584 180.5 29.8376L181 29.8317ZM190.076 35.0067L190.576 35.0028C190.574 34.8246 190.478 34.6606 190.323 34.5723L190.076 35.0067ZM190.076 35.007L189.828 35.4413C189.982 35.5291 190.171 35.5288 190.325 35.4405L190.076 35.007ZM181 29.832L180.752 29.3979C180.596 29.487 180.5 29.6528 180.5 29.8323C180.5 30.0118 180.596 30.1774 180.752 30.2663L181 29.832ZM231.42 1L231.673 0.568706C231.518 0.478091 231.327 0.477042 231.172 0.565955L231.42 1ZM240.243 6.17497L240.493 6.60848C240.647 6.51968 240.743 6.35537 240.743 6.17717C240.744 5.99898 240.65 5.83383 240.496 5.74368L240.243 6.17497ZM239.744 6.18016L240.5 70.7441L241.5 70.7324L240.744 6.16845L239.744 6.18016ZM240.752 70.3042L190.332 99.1362L190.828 100.004L241.248 71.1723L240.752 70.3042ZM191.08 99.5663L190.576 35.0024L189.576 35.0102L190.08 99.5741L191.08 99.5663ZM190.325 35.4398L240.493 6.60781L239.995 5.7408L189.827 34.5728L190.325 35.4398ZM190.833 99.1393L182.009 93.9643L181.503 94.8269L190.327 100.002L190.833 99.1393ZM182.256 94.3898L181.5 29.8259L180.5 29.8376L181.256 94.4015L182.256 94.3898ZM180.752 30.2661L189.828 35.441L190.323 34.5723L181.248 29.3974L180.752 30.2661ZM189.576 35.0106L190.08 99.5745L191.08 99.5667L190.576 35.0028L189.576 35.0106ZM190.323 34.5726L181.248 29.3976L180.752 30.2663L189.828 35.4413L190.323 34.5726ZM181.248 30.266L231.668 1.43405L231.172 0.565955L180.752 29.3979L181.248 30.266ZM231.167 1.43129L239.99 6.60626L240.496 5.74368L231.673 0.568706L231.167 1.43129ZM239.994 5.74146L189.826 34.5734L190.325 35.4405L240.493 6.60848L239.994 5.74146Z" fill="#FF6C3A"/>
<path d="M94.8151 124.418L93.3152 124.401C93.3215 123.869 93.6092 123.38 94.0714 123.116C94.5337 122.852 95.1011 122.853 95.5625 123.118L94.8151 124.418ZM93 279.372L92.2554 280.674C91.7828 280.404 91.4937 279.899 91.5001 279.354L93 279.372ZM214.008 348.569L215.508 348.581C215.504 349.113 215.217 349.604 214.756 349.869C214.294 350.135 213.726 350.135 213.263 349.871L214.008 348.569ZM215.218 193.615L215.965 192.315C216.435 192.584 216.722 193.086 216.718 193.627L215.218 193.615ZM214.008 348.57L214.767 349.864C214.302 350.137 213.725 350.139 213.258 349.869C212.79 349.598 212.504 349.098 212.509 348.558L214.008 348.57ZM235.185 336.15L236.685 336.167C236.679 336.693 236.397 337.178 235.944 337.444L235.185 336.15ZM237 181.196L236.257 179.893C236.724 179.627 237.298 179.631 237.761 179.904C238.224 180.176 238.506 180.676 238.5 181.214L237 181.196ZM215.219 193.616L213.719 193.605C213.723 193.07 214.011 192.578 214.476 192.313L215.219 193.616ZM215.219 193.617L215.962 194.92C215.499 195.183 214.932 195.182 214.471 194.917L215.219 193.617ZM237 181.197L237.745 179.895C238.212 180.162 238.5 180.659 238.5 181.198C238.5 181.736 238.211 182.233 237.743 182.5L237 181.197ZM115.992 112L115.233 110.706C115.697 110.434 116.27 110.431 116.737 110.698L115.992 112ZM94.8157 124.42L94.0683 125.72C93.6048 125.454 93.3181 124.961 93.3157 124.427C93.3134 123.892 93.5957 123.397 94.0569 123.126L94.8157 124.42ZM96.315 124.436L94.4999 279.39L91.5001 279.354L93.3152 124.401L96.315 124.436ZM93.7446 278.07L214.753 347.267L213.263 349.871L92.2554 280.674L93.7446 278.07ZM212.508 348.557L213.718 193.603L216.718 193.627L215.508 348.581L212.508 348.557ZM214.471 194.916L94.0677 125.719L95.5625 123.118L215.965 192.315L214.471 194.916ZM213.25 347.276L234.426 334.856L235.944 337.444L214.767 349.864L213.25 347.276ZM233.685 336.132L235.5 181.179L238.5 181.214L236.685 336.167L233.685 336.132ZM237.743 182.499L215.962 194.919L214.476 192.313L236.257 179.893L237.743 182.499ZM216.719 193.628L215.508 348.582L212.509 348.558L213.719 193.605L216.719 193.628ZM214.476 192.314L236.257 179.894L237.743 182.5L215.962 194.92L214.476 192.314ZM236.255 182.499L115.247 113.302L116.737 110.698L237.745 179.895L236.255 182.499ZM116.751 113.294L95.5746 125.714L94.0569 123.126L115.233 110.706L116.751 113.294ZM95.5631 123.119L215.966 192.316L214.471 194.917L94.0683 125.72L95.5631 123.119Z" fill="#FF6C3A"/>
<path d="M116 221L127.5 275.5L196 221" stroke="#FF6C3A" stroke-width="3" stroke-linecap="round" stroke-linejoin="round"/>
<path d="M122 203L133.5 257.5L202 203" stroke="#FF6C3A" stroke-width="3" stroke-linecap="round" stroke-linejoin="round"/>
</svg>
