<svg width="16" height="17" viewBox="0 0 16 17" fill="none" xmlns="http://www.w3.org/2000/svg">
<path d="M11.0003 3.49919C11.0002 2.91262 11.2064 2.3447 11.5827 1.8948C11.9591 1.44489 12.4817 1.14165 13.059 1.03812C13.6364 0.934596 14.2318 1.03738 14.741 1.32849C15.2502 1.6196 15.6409 2.08049 15.8446 2.63054C16.0484 3.18059 16.0522 3.78476 15.8555 4.33736C15.6587 4.88995 15.274 5.35577 14.7685 5.65333C14.263 5.95088 13.669 6.06122 13.0903 5.96504C12.5117 5.86885 11.9853 5.57227 11.6033 5.12718L4.88527 8.24719C5.03971 8.73662 5.03971 9.26175 4.88527 9.75118L11.6033 12.8712C12.0071 12.4015 12.5709 12.0985 13.1855 12.0208C13.8 11.9432 14.4215 12.0964 14.9294 12.4509C15.4374 12.8053 15.7957 13.3357 15.9349 13.9393C16.0741 14.5429 15.9843 15.1766 15.6829 15.7178C15.3814 16.2589 14.8898 16.6688 14.3033 16.8681C13.7169 17.0675 13.0773 17.042 12.5085 16.7966C11.9398 16.5512 11.4824 16.1035 11.225 15.5401C10.9676 14.9767 10.9285 14.3378 11.1153 13.7472L4.39727 10.6272C4.0647 11.0148 3.62142 11.2912 3.12704 11.4193C2.63267 11.5474 2.11093 11.521 1.632 11.3437C1.15308 11.1664 0.739941 10.8466 0.448173 10.4275C0.156404 10.0083 0 9.50988 0 8.99918C0 8.48849 0.156404 7.99004 0.448173 7.5709C0.739941 7.15175 1.15308 6.83202 1.632 6.65471C2.11093 6.47739 2.63267 6.45101 3.12704 6.5791C3.62142 6.70719 4.0647 6.98361 4.39727 7.37119L11.1153 4.25119C11.0388 4.00785 11 3.75425 11.0003 3.49919V3.49919Z" fill="#FF6C3A"/>
</svg>
